<svg width="186" height="58" viewBox="0 0 186 58" fill="none" xmlns="http://www.w3.org/2000/svg">
<g clip-path="url(#clip0_50_295)">
<path d="M37.024 46.576C34.336 46.576 31.76 46.224 29.296 45.52C26.832 44.784 24.848 43.84 23.344 42.688L25.984 36.832C27.424 37.856 29.12 38.704 31.072 39.376C33.056 40.016 35.056 40.336 37.072 40.336C38.608 40.336 39.84 40.192 40.768 39.904C41.728 39.584 42.432 39.152 42.88 38.608C43.328 38.064 43.552 37.44 43.552 36.736C43.552 35.84 43.2 35.136 42.496 34.624C41.792 34.08 40.864 33.648 39.712 33.328C38.56 32.976 37.28 32.656 35.872 32.368C34.496 32.048 33.104 31.664 31.696 31.216C30.32 30.768 29.056 30.192 27.904 29.488C26.752 28.784 25.808 27.856 25.072 26.704C24.368 25.552 24.016 24.08 24.016 22.288C24.016 20.368 24.528 18.624 25.552 17.056C26.608 15.456 28.176 14.192 30.256 13.264C32.368 12.304 35.008 11.824 38.176 11.824C40.288 11.824 42.368 12.08 44.416 12.592C46.464 13.072 48.272 13.808 49.84 14.8L47.44 20.704C45.872 19.808 44.304 19.152 42.736 18.736C41.168 18.288 39.632 18.064 38.128 18.064C36.624 18.064 35.392 18.24 34.432 18.592C33.472 18.944 32.784 19.408 32.368 19.984C31.952 20.528 31.744 21.168 31.744 21.904C31.744 22.768 32.096 23.472 32.8 24.016C33.504 24.528 34.432 24.944 35.584 25.264C36.736 25.584 38 25.904 39.376 26.224C40.784 26.544 42.176 26.912 43.552 27.328C44.96 27.744 46.24 28.304 47.392 29.008C48.544 29.712 49.472 30.64 50.176 31.792C50.912 32.944 51.28 34.4 51.28 36.16C51.28 38.048 50.752 39.776 49.696 41.344C48.64 42.912 47.056 44.176 44.944 45.136C42.864 46.096 40.224 46.576 37.024 46.576ZM56.5934 46V12.4H64.3694V46H56.5934ZM110.365 25.936H126.541V31.984H110.365V25.936ZM110.941 39.76H129.229V46H103.213V12.4H128.605V18.64H110.941V39.76ZM135.416 46V12.4H143.192V39.664H160.04V46H135.416Z" fill="white"/>
<path d="M96 28.2018C92.0725 23.5163 93.7627 14.8267 74.1101 12.6157C73.5236 12.5498 73 13.0107 73 13.6009V17.7204C73 18.2476 73.4123 18.6839 73.9382 18.7222C81.4947 19.2722 84.4102 20.3172 86.3406 23.3257C88.2133 26.2445 88.2429 30.1693 86.3552 33.0784C84.1533 36.4718 80.6854 38.1786 73.8427 39.3599C73.3587 39.4434 73 39.8613 73 40.3525V44.3507C73 44.958 73.5533 45.4233 74.1533 45.3296C94.8089 42.1047 92.0716 32.9141 96 28.2018Z" fill="white"/>
<path d="M73 33.5157V24.4079C73 23.8643 73.4352 23.418 73.9789 23.4197C77.2431 23.4302 79.202 23.9389 80.6363 25.7481C81.7683 27.1761 81.8323 29.2128 80.9681 30.8171C79.7077 33.1569 77.7324 34.3728 73.985 34.493C73.4391 34.5104 73 34.0618 73 33.5157Z" fill="white"/>
<path d="M96 28.2018C92.0725 23.5163 93.7627 14.8267 74.1101 12.6157C73.5236 12.5498 73 13.0107 73 13.6009V17.7204C73 18.2476 73.4123 18.6839 73.9382 18.7222C81.4947 19.2722 84.4102 20.3172 86.3406 23.3257C88.2133 26.2445 88.2429 30.1693 86.3552 33.0784C84.1533 36.4718 80.6854 38.1786 73.8427 39.3599C73.3587 39.4434 73 39.8613 73 40.3525V44.3507C73 44.958 73.5533 45.4233 74.1533 45.3296C94.8089 42.1047 92.0716 32.9141 96 28.2018Z" stroke="white"/>
<path d="M73 33.5157V24.4079C73 23.8643 73.4352 23.418 73.9789 23.4197C77.2431 23.4302 79.202 23.9389 80.6363 25.7481C81.7683 27.1761 81.8323 29.2128 80.9681 30.8171C79.7077 33.1569 77.7324 34.3728 73.985 34.493C73.4391 34.5104 73 34.0618 73 33.5157Z" stroke="white"/>
</g>
<defs>
<clipPath id="clip0_50_295">
<rect width="186" height="58" fill="white"/>
</clipPath>
</defs>
</svg>
